<?xml version="1.0" encoding="utf-8"?>
<!-- Generator: Adobe Illustrator 25.4.1, SVG Export Plug-In . SVG Version: 6.00 Build 0)  -->
<svg version="1.1" id="Layer_1" xmlns="http://www.w3.org/2000/svg" xmlns:xlink="http://www.w3.org/1999/xlink" x="0px" y="0px"
	 viewBox="0 0 1920 1080" style="enable-background:new 0 0 1920 1080;" xml:space="preserve">
<style type="text/css">
	.st0{fill:#C6A477;}
	.st1{fill:#9DC5D1;}
	.st2{fill:#D1AF8B;}
	.st3{fill:#968E42;}
	.st4{fill:#A8A148;}
	.st5{fill:#212020;}
	.st6{fill:#898537;}
	.st7{fill:#A58968;}
	.st8{fill:#7C4A45;}
	.st9{fill:#1C1C1C;}
	.st10{fill:#D3C76C;}
	.st11{fill:#B2AA59;}
	.st12{fill:#99856E;}
</style>
<path class="st0" d="M943.2,749.3c-2.2,61.4-5.6,123.6-10.3,186.4c-0.4,5.1-0.8,10.3-1.2,15.4c-6.3,0.5-19.5,2.3-33.1,11.3
	c-13,8.6-19.9,19.4-23.1,25c35.8-0.6,71.7-1.2,107.5-1.7c3.5-79.2,7-158.4,10.5-237.5C976.7,748.5,959.9,748.9,943.2,749.3z"/>
<path class="st0" d="M1102.5,757.4c2.2,59.3,5.6,119.4,10.3,180.1c0.4,5,0.8,9.9,1.2,14.9c6.3,0.4,19.5,2.2,33.1,10.9
	c12.9,8.3,19.9,18.7,23.1,24.2c-35.9-0.3-71.8-0.7-107.6-1c-3.4-76.7-6.9-153.5-10.4-230.2C1069,756.6,1085.8,757,1102.5,757.4z"/>
<path class="st1" d="M1036.6,280.8l68.3-3.2l45.6,30.1c0,0,17.3,3.4,27.4,16.5c10.2,13.1,11.8,11.5,15.6,58c0,0-27.1-29.6-43.1-6.7
	c1.3,15.8,2.6,31.5,3.8,47.3c-8.4,8.2-16.7,16.4-25.1,24.5c-27.1,2.2-54.2,4.4-81.3,6.5c-24.9-3.6-49.8-7.3-74.7-10.9
	c1.4-19.7,2.7-39.3,4.1-59c0.4-2,0.8-5,0.3-8.6c-0.3-2.1-0.5-3.9-1.6-5.3c-3.1-4.2-10.8-2.8-11.5-2.7c1.4-1.9,3.7-5.4,4.5-10.3
	c0.1-0.6,0.4-2.5,0.3-4.8c-0.3-6.9-4-12-5.9-14.5c-8.5-11.7-26.9-19.5-28.9-20.3c0,0,46.4-36.5,81.3-35.5L1036.6,280.8z"/>
<path class="st1" d="M982.8,494.6H1121l11.6,23.3c4.8,132.8,2.7,232.8-1.1,273.2c-1.7,18.1-5.5,44-18.2,72.5c-3.5,8-8,17.9-16.4,29
	c-18.2,24.3-41.3,36.2-55.1,41.9c-9.8-2-37.7-9.3-59.8-38.4c-13.8-18.2-19.5-37.3-21.8-46.6c-5.5-22.2-4.2-41.2-2.9-51.8
	c-5.5,1.9-15.8,4.2-24.4-2c0,0-4.2-3-7.3-8.4c-11.3-19.7,4.6-167.5,5.4-174.3C948.2,573.4,965.5,534,982.8,494.6z"/>
<path class="st2" d="M701,355.8c-4-2.6,4.1-32.8,16.9-34c7.3-0.7,13.7,8.5,21,18.8c6.8,9.7,10.5,19,12.6,25.7
	c19.9-1.1,42.1-4,66.2-8.5c37.3-6.9,83-19.1,116.7-40.4c0,0,31.1,8.1,35,28.6l0,0c0.6,1.9,1.7,6.4,0.3,11.8
	c-0.4,1.4-1.6,5.9-5.4,9.5c-3.8,3.6-7.8,4.2-14.5,5.7c-6.7,1.4-13.2,3.8-19.9,5c-61.7,11.1-89.8,19.6-143.7,21.5
	c-10.1,0.4-24.6,0.6-42.2-0.1c-7.5-10.4-13.2-18.8-17-24.5c-8.2-12.2-13.6-21.2-20.5-20.8C703.5,354.4,702.2,356.6,701,355.8z"/>
<path class="st3" d="M973.2,442.9c-0.8,3.3-1.5,6.7-2.2,10.1c-1.6,8.1-3,15.9-4.1,23.5c6.2,7,34.9,37.7,82.4,41.7
	c37.6,3.2,65.4-12.1,75-18v-26.4c-36.8-7.5-73.7-15-110.5-22.6C1000.3,448.5,986.7,445.7,973.2,442.9z"/>
<path class="st4" d="M1036.6,280.8c0.6,23.3,1.9,58.6,5.2,101.5c5,65.7,12.3,143.8,27.6,145c14.1,1,30.1-62.8,35.6-92.4
	c7.7-41,6.5-76.5,5.6-97.8c-1-24.6-3.5-45-5.7-59.5l0,0C1082.1,278.7,1059.4,279.7,1036.6,280.8z"/>
<path class="st2" d="M1147.6,375.7c0,0,18.6-24.7,46,6.5c1.8,11.1,3.5,27.3,2.2,46.8c-0.4,5.3-1.1,13-1.8,16
	c0,0-11.7,33.4-149.3,34.3c-1.4,0-2.7,0-2.7,0c-2.3-0.1-7.9-0.8-17.9-7.8c-3.6-2.6-8.3-6.4-13.2-11.8c-2.1-1.8-5.4-4.3-10-6
	c-10.3-3.7-19.2-0.4-22-5.1c-1-1.8-0.7-3.7-0.6-4.4c1-6,9.3-9,13.1-10.5c0,0,19.3-6.9,43.2,4.1c2.2,1,5.9,2.7,9.8,6.3
	c1.5,1.4,2.7,2.7,5.1,5.5c5,5.7,5.4,6.9,7.4,8c0.7,0.4,3.7,1.8,9.6,0c8.5-2.5,40.3-16.7,82.8-37.1
	C1148.7,405.4,1148.1,390.5,1147.6,375.7z"/>
<path class="st2" d="M1036.2,269.2c0.1,0.5,0.3,1.1,0.4,1.6c0.7,3.7,0.5,7.1,0,10c4.8,3,15.6,8.9,30.3,9.2
	c19.9,0.5,33.8-9.2,38-12.5v-31.3c2.2-1.5,5.6-4.1,8.5-8.3c7.1-10.4,7.9-26,2.6-28.8c-1.2-0.7-2.5-0.4-3.9-0.2
	c-8.8,1.6-12.8,11.9-13.3,13.2C1078,237.9,1057.1,253.5,1036.2,269.2z"/>
<path class="st2" d="M1097.5,213.6c0,0,0.9,2.3,2.7,24.2c-0.4,3.5-1.1,6.5-1.9,8.9c-0.1,0.3-0.2,0.7-0.4,1.2c0,0-0.6,1.8-1.6,3.6
	c-5.9,11.6-20.2,19.6-20.2,19.6c-8.8,4.9-17.5,9.8-27.3,7c-5.9-1.7-9.4-5.4-12.8-8.9c-13.4-14.1-14.5-33.1-15-41.3
	c-0.2-3-0.1-6.4,0-13.2c0.2-12.9,0.3-19.3,1.9-21.7c6.4-9.6,29.3-5.3,39.8-2.1C1079.4,196,1090.7,206,1097.5,213.6z"/>
<path class="st5" d="M1075.6,196.6c0,0,19.9,9.8,23.2,25.6c0,0,5.6-12.6,15.6-12.8s-1.1,29.3-9.6,36.9v22.1c0,3.1,0,6.1,0,9.2
	c0.3,1.5,0.9,3.6,2,6c0.6,1.3,2.7,5.7,8.2,11c7.5,7.2,16.4,11.3,21,13.1l14.4,0c0,0-22.6-92.8-19.1-118.4
	C1131.4,189.3,1104.2,198.6,1075.6,196.6z"/>
<path class="st4" d="M1035.3,118.7c0,0-16-39,24.6-76.4l24-24.9c0,0,44.4,65.3,45.4,80c0.5,2.1,1,4.2,1.4,6.2
	c0.6,2.9,1.2,7.9-1.1,12.9c-3.6,8-12.1,10.9-16.8,12.5C1088.5,137.5,1040.5,120.5,1035.3,118.7z"/>
<path class="st6" d="M1131.4,12.8l-29.6,31.8c1.9,3,4.7,7.2,7.7,12.5c8.8,14.9,16.3,27.8,19.6,39.6c8.1,28.9-12.2,42.1-3.6,76.6
	c1.8,7.1,4.2,12.7,5.8,16.1c4.9-4.8,42.5-44.8,37.6-103.4C1165.2,39.6,1131.4,12.8,1131.4,12.8z"/>
<path class="st5" d="M1037.1,146.1L1037.1,146.1c0,0,0.5-0.7,1-1.3c0.4-0.5,0.6-1.2,0.5-1.2c-0.1,0-0.6,0.7-2.6,4
	c-0.5-1.6-8.2-30.8,10.1-48.8c6.3-6.2,12.5-8.2,12.5-8.2c2.4-0.6,4.4-0.7,5.8-0.7c1.1,0,2.7,0,4.5,0.3c9.1,1.3,18.4,7.5,23.4,16.1
	c1.4,2.4,6.1,11.3,8.6,17.4c0.2,0.6,0.9,2.2,2.5,3.5c2.6,2.1,6,1.9,7.6,1.8c8.9-0.6,17.7-11.2,18.7-12.4c0.5-2,0.9-4.6,0.9-7.6
	c0.2-7.3-1.8-11.4-1.3-11.6c1.1-0.5,17,16.6,14.6,38.5c-1.7,14.6-10.3,24.9-15.4,30c-0.5,2.6-0.9,5.9-0.6,9.8
	c0.4,5.9,2.1,10.6,3.5,13.6c-18.1,3.1-29.9-0.4-37.1-3.8C1077.1,177.3,1037.2,146,1037.1,146.1z"/>
<path class="st4" d="M1021.9,195.2c18.1,0.5,36.1,1,54.2,1.4c6.4,0.3,13.5,0.2,21.3-0.5c13.3-1.2,24.7-3.9,33.9-6.8
	c0,0-37.3,2.4-57.6-22s-29.8-28.7-29.8-28.7s-14.6,12.2-15.3,29s-12,12.8-12,12.8c1.5,5.8,2.6,10.1,2.9,11.7
	c0.1,0.4,0.3,1.3,1.1,2.2C1021.1,194.8,1021.6,195.1,1021.9,195.2z"/>
<path class="st7" d="M1046.1,232.9c0,0,1.4,4.1-1.1,9.9c0,0,3.7,1.9,7.4-1.2L1046.1,232.9z"/>
<path class="st8" d="M1038.9,255c0,0,11.2,5.9,27.2-0.9L1038.9,255z"/>
<path class="st9" d="M1025.2,224.3c0,0,10.3-8.8,17.9-0.4c-1.5-0.8-4.7-2.1-8.9-2C1029.8,221.9,1026.7,223.4,1025.2,224.3z"/>
<path class="st9" d="M1080.8,221.1c0,0-14.1-9.6-22.4,1.9c1.8-1.2,5.6-3.3,10.8-3.8C1074.7,218.8,1078.9,220.3,1080.8,221.1z"/>
<path class="st9" d="M1057.5,213.8c0,0,9.8-6.1,21.2-3.8C1078.7,210.1,1066.6,209.7,1057.5,213.8z"/>
<path class="st9" d="M1044.8,214.1c0,0-10.6-4.8-21.5-0.9C1023.4,213.2,1035.3,211.2,1044.8,214.1z"/>
<path class="st7" d="M1047.5,257.3c0,0,4.6,0.2,6.6,0c0,0-3,2.5-3.6,2.5C1049.9,259.9,1047.5,257.3,1047.5,257.3z"/>
<path class="st10" d="M966.9,476.5c0,0-33.6,18.7-35.9,51.1s82.7-5.4,90.2-15.2C1028.8,502.7,966.9,476.5,966.9,476.5z"/>
<path class="st11" d="M701,355.8c0,0,17.7-18.5,43.2,43.6s196.2,175.9,277,113c-16.5,13.1-28.3,25.4-36.1,34.5
	c-11,12.8-18,23.5-35.4,42.7c-5.9,6.5-11,11.8-14.5,15.3c0,3.9,0,7.8,0,11.7c-0.3,31.3-3.5,60.8-8.5,88.1c-15,49-50.7,82.2-89.8,86
	c-13.2,1.3-27.9-1.3-43.8-9.6c-2.1-1-5.5-2.7-9.5-5.1c-7.1-4.3-15.4-9.5-22-19.1c-1.6-2.3-3.8-5.6-5.5-10.4
	c-4-11.4-1.5-21.8,0.1-26.5c-10.8-12.4-23.1-27-30.8-46c-14-34.5-25.1-92-13.6-184.2C711.9,489.8,710,357.9,701,355.8z"/>
<path class="st10" d="M1124.3,500.2c0,0,30.6,9.8,40.4,55.6c9.8,45.8,3.3,54.5,3.3,54.5s9.8,16,7.2,26.2c0,0-5.7,9-6.6,15.7
	c-0.8,6.7,5.1,43.4,5.1,43.4s4,15.6-16,25.5c0,0-0.4,44.2-26.2,69.9L1124.3,500.2z"/>
<path class="st11" d="M1149.9,611.2c0,0,12.7,5.5,16.1,0C1166,611.2,1163.8,619.6,1149.9,611.2z"/>
<path class="st11" d="M1152.9,736.5c0,0-3,6-1.9,16.9C1151,753.4,1146.2,746.4,1152.9,736.5z"/>
<path class="st11" d="M1152,705.8c0,0,6.4,5.1,12,1.8L1152,705.8z"/>
<path class="st12" d="M1102.7,222.1c1.6-2.1,5-5.9,9.5-6.8c1.1-0.2,1.7-0.2,2.2,0.2c1.6,1.3-0.3,6.1-1.5,9.2
	c-1.2,3.1-3.3,7.4-6.8,12.2c0,0,8.3-15.5,6.9-18.2C1111.6,216,1107.7,218,1102.7,222.1z"/>
<path class="st12" d="M1101.8,241c0.9,3.5-0.4,6.9-2.5,10.4c-7.6,12.8-18.2,19-18.2,19c-11.1,6.5-22.2,8-22,8c2.6-0.5,4.6-1.2,6-1.8
	c1.6-0.6,3-1.3,4.6-2.1c0.4-0.2,1.6-0.8,3-1.5c0.2-0.1,4.5-2.4,7.7-4.7c5.9-4.1,10-9.5,10.8-10.6c2.2-2.8,6.1-8,8.2-15.8
	c0.5-1.7,0.8-3.2,0.9-4.2C1100.8,238.5,1101.4,239.6,1101.8,241z"/>
</svg>
