<?xml version="1.0" encoding="utf-8"?>
<!-- Generator: Adobe Illustrator 25.4.1, SVG Export Plug-In . SVG Version: 6.00 Build 0)  -->
<svg version="1.1" id="Layer_1" xmlns="http://www.w3.org/2000/svg" xmlns:xlink="http://www.w3.org/1999/xlink" x="0px" y="0px"
	 viewBox="0 0 1920 1080" style="enable-background:new 0 0 1920 1080;" xml:space="preserve">
<style type="text/css">
	.st0{display:none;}
	.st1{display:inline;fill:#84383A;}
	.st2{fill:#994D52;}
	.st3{fill:#F2C9A5;}
	.st4{fill:#9DC5D1;}
	.st5{fill:#968E42;}
	.st6{fill:#A8A148;}
	.st7{fill:#212020;}
	.st8{fill:#898537;}
	.st9{fill:#D3AE92;}
	.st10{fill:#7C4A45;}
	.st11{fill:#1C1C1C;}
	.st12{fill:#D3C76C;}
	.st13{fill:#B2AA59;}
	.st14{display:inline;}
	.st15{display:none;clip-path:url(#SVGID_00000119093009768892970820000010530236145903382155_);}
	.st16{display:none;fill:#FFFFFF;}
	.st17{fill:#3A3A3A;}
	.st18{fill:none;stroke:#545454;stroke-miterlimit:10;}
	.st19{fill:none;stroke:#FFFFFF;stroke-width:0.25;stroke-miterlimit:10;}
	.st20{fill:#BCBCBC;}
	.st21{fill:#CCA78B;}
	.st22{fill:#212121;}
	.st23{fill:none;stroke:#212121;stroke-miterlimit:10;}
	.st24{fill:#919191;}
	.st25{fill:#B7464B;}
	.st26{fill:#FAB696;}
	.st27{fill:#969696;}
	.st28{fill:#CC937D;}
	.st29{fill:#F9F9F9;}
	.st30{fill:none;stroke:#969696;stroke-miterlimit:10;}
	.st31{fill:#219B89;}
	.st32{fill:#1E7264;}
	.st33{fill:#E0BF58;}
	.st34{fill:#FAB696;stroke:#BE4C5A;stroke-linecap:round;stroke-miterlimit:10;}
	.st35{fill:none;stroke:#BE4C5A;stroke-linecap:round;stroke-miterlimit:10;}
	.st36{fill:#D89E60;}
	.st37{fill:#BC7B62;}
	.st38{fill:#FFFFFF;}
	.st39{fill:#D66D67;}
	.st40{fill:#A5754A;}
	.st41{fill:none;stroke:#BF605E;stroke-miterlimit:10;}
	.st42{fill:#FCFCFC;}
	.st43{fill:#7992BA;}
	.st44{fill:#141414;}
	.st45{fill:#5C708E;}
	.st46{fill:#FFD9A1;}
	.st47{fill:#D69980;}
	.st48{fill:#B24F4F;}
	.st49{fill:none;stroke:#D69980;stroke-width:0.25;stroke-miterlimit:10;}
</style>
<g id="Layer_2_00000108306799990889688850000015689720114537038776_" class="st0">
	<rect x="-16.7" y="-17.8" class="st1" width="1954.9" height="1114.9"/>
</g>
<path class="st2" d="M279.2,191L267,203.2c0,0-7,4-10.3,3.4c0,0-0.9-0.2-0.8,0.6s1.6,4,1.2,4.7s-1.3,2.6-2.6,2.9
	c0,0-0.4,0.8,0.2,2.3c0-0.1,0-0.2-0.1-0.3c-0.2-0.3-0.7-0.2-1,0c-0.4,0.2-0.5,0.7-0.5,0.8c0.2,0.3,0.4,0.9,0.4,1.6
	c-0.1,1.5-1.5,2.1-1.9,3.2c-0.8,2,2.2,4.6,4,7.1c1.7,2.3,3.4,5.8,3.6,11.6c0,0-0.6,2-1.2,2c-0.5,0-23.9-41.9-23.9-41.9
	s-0.6-8.1-3.3-17.2c-2.6-9.2-17.6-43.3-17.6-43.3c-1.3-2.3-3.5-5.9-7-9.7c-4.2-4.6-5.5-4.3-10.8-9.9c-5.5-5.8-8.3-8.7-8.8-9.6
	c-0.7-0.7-5.3-5.4-6.1-5.1c-0.2,0.1-0.4,0.3-0.4,0.3s-0.3,0.4-0.4,1.1c0,2.2,3.2,5,3.2,5c5.8,8,7.1,9.7,7,9.8
	c-0.1,0-1.4-1.8-3.6-4.2c-2.1-2.3-3.9-4-5.2-5.1l0,0c-1-0.9-2.2-1.1-2.9-1.3c-2.9-0.6-3.5-1.2-3.9-0.8c-0.4,0.5,0.2,1.6,0.3,1.8
	c0.9,1.7,2.6,2,4.3,3.1c0.8,0.5,1.8,1.7,3.6,3.9c1.4,1.7,3.2,4,5.3,6.9c-0.9-1-2.5-2-4.5-3.2c-1.3-0.8-2.4-1.3-2.7-0.9
	c0,0-0.1,0.1-0.1,0.4c-0.1,2.3,4.3,10.2,24.3,21.4c0,0,5.8,46.3,8.8,53.7s20.5,49.3,31.2,63.4c0,0-1,13.9-6.5,19
	c-5.5,5,0.2,22.1,7.7,27c0,0,3,21.3,23.1,38.2c20.1,16.9,34.7,23.6,43.5,35c0,0-1.4,44.6,1.6,52s-1,32.5,8.4,54.7
	c0,0,2.3,23.6-6.4,79.2c-8.7,55.5-0.7,1-0.7,1s-11.1,43.6-1.3,59.5c9.7,15.9,14.4-28.8,14.4-28.8s10.1-4.5,13.4-15.4
	c0,0-0.8-4.7-6.4-10.9c-5.5-6.2,14.2-52,14.2-52s2.9-34.9-4.4-56.1c0,0,13.1-32.2,9.1-68.4c0,0,10.6-23.5,7-43.9l52.3-40.6
	c0,0,16.1-2,42.6-27.5c0,0,16.1-7,30.9-17.8c14.8-10.7,38.6-21.1,38.6-21.1l13.5-2.7l30.9-28.9c0,0-0.5-11.1-8.6-12.8
	c-8.1-1.8-31.2,20.6-31.2,20.6l-11.1,10.1c0,0-59.1,14.6-89.3,38.7l-94.3,37l-30.4-2.3c0,0,0-12.3,4.8-19.6c0,0,20.4,3.5,30.4,2.5
	c10.1-1,39.2-12.6,39.2-12.6c11.7-1,16.4,0.4,18.3,2.1c0.4,0.3,1.8,1.7,2.5,1.3c0.6-0.3,0.4-1.8,0-2.9c-1-2.3-3.6-3.1-3.4-3.4
	c0.1-0.2,1.1,0,2.4,0.5c1.9,0.7,4.8,2.3,7.8,6.2c0.1,0.1,1.8,1.6,2.6,1.1c0.6-0.4,0.2-1.8,0-2.4c-1-3.6-5.4-6.4-8.5-8
	c0.4,0,1-0.1,1.8,0.1c2,0.4,3.3,1.6,3.7,2c1.9,1.9,2.2,4,3.9,4.8c0.2,0.1,0.5,0.2,0.7,0.1c0.5-0.3,0.1-2-0.2-3.1
	c-0.7-2-1.6-3.3-2.2-4.1c-4.7-5.5-14.1-5.6-18.6-5.6l0,0c-13.9,0.5-21.9,1.5-21.9,1.5c-20.8,2.7-22,3.9-29.4,4
	c-6.4,0.1-15.5-0.8-26.7-5c0.6-25.3,0.9-44.1,0.9-50.6c0-0.9,0-3.1-0.9-5.6c-1.8-4.9-5.8-7.7-8.2-9.3
	C295.1,191.9,283.3,191.1,279.2,191z"/>
<ellipse class="st2" cx="447.6" cy="970.5" rx="192.8" ry="18.6"/>
<ellipse class="st2" cx="946.4" cy="808" rx="228.9" ry="53.9"/>
<ellipse class="st2" cx="1436.2" cy="973.6" rx="192.8" ry="18.6"/>
<g>
	<path class="st3" d="M388.6,815.7c-1.4,39.9-3.6,80.3-6.7,121.1c-0.3,3.3-0.5,6.7-0.8,10c-4.1,0.4-12.7,1.5-21.5,7.4
		c-8.4,5.6-12.9,12.6-15,16.3c23.3-0.4,46.6-0.8,69.9-1.1c2.3-51.5,4.5-103,6.8-154.4C410.4,815.1,399.4,815.4,388.6,815.7z"/>
	<path class="st3" d="M492.1,820.9c1.4,38.5,3.6,77.6,6.7,117c0.3,3.3,0.5,6.4,0.8,9.7c4.1,0.3,12.7,1.4,21.5,7.1
		c8.4,5.4,12.9,12.2,15,15.7c-23.3-0.2-46.7-0.4-69.9-0.6c-2.2-49.9-4.4-99.8-6.8-149.6C470.3,820.5,481.2,820.7,492.1,820.9z"/>
	<path class="st4" d="M449.2,511.2l44.4-2l29.6,19.6c0,0,11.2,2.2,17.8,10.8c6.7,8.5,7.6,7.5,10.1,37.7c0,0-17.6-19.2-28-4.4
		c0.9,10.2,1.7,20.5,2.5,30.8c-5.4,5.3-10.8,10.7-16.3,15.9c-17.6,1.4-35.2,2.8-52.8,4.3c-16.2-2.3-32.4-4.7-48.5-7.1
		c0.9-12.8,1.8-25.5,2.7-38.3c0.3-1.3,0.5-3.3,0.2-5.6c-0.2-1.3-0.4-2.6-1.1-3.5c-2-2.8-7-1.8-7.5-1.8c0.9-1.2,2.4-3.5,2.9-6.7
		c0.1-0.4,0.3-1.6,0.2-3.1c-0.2-4.4-2.6-7.8-3.8-9.4c-5.5-7.6-17.5-12.7-18.8-13.2c0,0,30.1-23.7,52.8-23L449.2,511.2z"/>
	<path class="st4" d="M414.3,650.2h89.8l7.6,15.1c3.1,86.3,1.8,151.3-0.7,177.6c-1.1,11.7-3.6,28.6-11.8,47.1
		c-2.3,5.2-5.2,11.6-10.7,18.8c-11.8,15.8-26.9,23.6-35.8,27.2c-6.4-1.3-24.5-6-38.9-25c-9-11.8-12.7-24.3-14.1-30.3
		c-3.6-14.4-2.8-26.8-1.9-33.7c-3.6,1.2-10.2,2.8-15.8-1.3c0,0-2.8-2-4.7-5.4c-7.4-12.8,3-108.8,3.5-113.3
		C391.8,701.4,403.1,675.8,414.3,650.2z"/>
	<path class="st3" d="M231.1,560c-2.6-1.7,2.7-21.3,11-22.1c4.7-0.4,8.9,5.5,13.6,12.2c4.4,6.3,6.8,12.4,8.2,16.7
		c12.9-0.7,27.4-2.6,43-5.5c24.3-4.4,54-12.4,75.8-26.2c0,0,20.2,5.2,22.8,18.6l0,0c0.4,1.2,1.1,4.2,0.2,7.6
		c-0.3,0.9-1.1,3.8-3.5,6.1c-2.5,2.3-5.1,2.8-9.4,3.7c-4.4,0.9-8.5,2.5-12.9,3.3c-40.1,7.2-58.3,12.7-93.4,14
		c-6.6,0.3-16,0.4-27.4-0.1c-4.9-6.8-8.5-12.2-11-15.9c-5.3-7.9-8.8-13.8-13.3-13.5C232.8,559.1,231.9,560.5,231.1,560z"/>
	<path class="st5" d="M408.1,616.6c-0.5,2.1-1,4.4-1.4,6.6c-1.1,5.2-2,10.3-2.7,15.3c4,4.5,22.7,24.5,53.5,27.1
		c24.5,2,42.5-7.8,48.7-11.7v-17.2c-23.9-4.9-47.9-9.8-71.8-14.7C425.7,620.2,416.9,618.4,408.1,616.6z"/>
	<path class="st6" d="M449.2,511.2c0.4,15.1,1.2,38.1,3.4,66c3.3,42.7,8,93.4,18,94.2c9.2,0.6,19.6-40.8,23.1-60
		c5-26.7,4.3-49.7,3.6-63.6c-0.6-16-2.3-29.3-3.7-38.7l0,0C478.8,509.9,464.1,510.5,449.2,511.2z"/>
	<path class="st3" d="M521.4,572.9c0,0,12.1-16.1,29.9,4.3c1.2,7.2,2.3,17.8,1.4,30.4c-0.3,3.5-0.7,8.4-1.2,10.4
		c0,0-7.6,21.7-97,22.3c-0.9,0-1.8,0-1.8,0c-1.5-0.1-5.2-0.5-11.6-5.1c-2.3-1.7-5.4-4.2-8.5-7.6c-1.3-1.2-3.5-2.8-6.5-3.9
		c-6.7-2.4-12.4-0.3-14.3-3.3c-0.6-1.2-0.4-2.4-0.4-2.8c0.6-3.9,6-5.9,8.5-6.8c0,0,12.5-4.4,28.1,2.7c1.4,0.6,3.8,1.8,6.4,4.1
		c1,0.9,1.8,1.8,3.3,3.6c3.3,3.7,3.5,4.4,4.8,5.2c0.4,0.3,2.4,1.2,6.2,0c5.5-1.6,26.2-10.8,53.8-24.1
		C522.1,592.2,521.7,582.5,521.4,572.9z"/>
	<path class="st3" d="M449,503.7c0.1,0.4,0.2,0.7,0.3,1.1c0.4,2.4,0.4,4.6,0,6.5c3.1,2,10.1,5.8,19.6,6c12.9,0.4,22-6,24.7-8.1
		v-20.4c1.4-1,3.6-2.7,5.5-5.4c4.6-6.8,5.2-16.9,1.7-18.7c-0.8-0.4-1.6-0.3-2.6-0.1c-5.7,1.1-8.4,7.7-8.6,8.5
		C476.2,483.4,462.6,493.5,449,503.7z"/>
	<path class="st3" d="M488.8,467.6c0,0,0.6,1.5,1.8,15.7c-0.3,2.3-0.7,4.3-1.2,5.8c-0.1,0.2-0.1,0.4-0.3,0.8c0,0-0.4,1.2-1.1,2.3
		c-3.8,7.6-13.2,12.7-13.2,12.7c-5.7,3.2-11.4,6.4-17.8,4.5c-3.8-1.1-6.1-3.5-8.4-5.8c-8.7-9.2-9.4-21.5-9.8-26.9
		c-0.1-2-0.1-4.2,0-8.5c0.1-8.4,0.2-12.5,1.2-14.1c4.2-6.2,19-3.5,25.9-1.3C477.1,456.1,484.4,462.6,488.8,467.6z"/>
	<path class="st7" d="M474.6,456.6c0,0,12.9,6.4,15.1,16.6c0,0,3.6-8.2,10.1-8.4c6.5-0.1-0.7,19-6.2,24v14.4c0,2,0,4,0,6
		c0.2,1,0.6,2.3,1.3,3.9c0.4,0.9,1.8,3.7,5.3,7.1c4.9,4.7,10.7,7.4,13.6,8.5h9.3c0,0-14.7-60.3-12.4-76.9
		C510.9,451.7,493.2,457.8,474.6,456.6z"/>
	<path class="st6" d="M448.4,405.9c0,0-10.4-25.3,16-49.6l15.6-16.2c0,0,28.9,42.4,29.5,52c0.4,1.3,0.6,2.8,0.9,4
		c0.4,1.9,0.8,5.2-0.7,8.4c-2.3,5.2-7.8,7.1-10.9,8.1C483,418.1,451.8,407,448.4,405.9z"/>
	<path class="st8" d="M510.9,337.1l-19.2,20.6c1.2,2,3,4.7,5,8.1c5.7,9.7,10.6,18,12.7,25.7c5.2,18.8-7.9,27.4-2.3,49.8
		c1.2,4.6,2.8,8.3,3.7,10.5c3.2-3.1,27.7-29.1,24.5-67.2C532.8,354.5,510.9,337.1,510.9,337.1z"/>
	<path class="st7" d="M449.6,423.7L449.6,423.7c0,0,0.4-0.4,0.6-0.9c0.3-0.4,0.4-0.8,0.4-0.8c-0.1,0-0.4,0.4-1.7,2.6
		c-0.4-1.1-5.3-20,6.6-31.7c4.1-4,8.1-5.3,8.1-5.3c1.6-0.4,2.8-0.4,3.7-0.4c0.7,0,1.8,0,2.9,0.2c6,0.9,11.9,4.9,15.2,10.5
		c0.9,1.6,4,7.4,5.6,11.3c0.1,0.4,0.6,1.4,1.6,2.3c1.7,1.3,3.9,1.2,5,1.2c5.8-0.4,11.5-7.3,12.2-8.1c0.4-1.3,0.6-3,0.6-5
		c0.1-4.7-1.2-7.4-0.9-7.6c0.7-0.4,11,10.8,9.5,25c-1.1,9.5-6.7,16.2-10,19.5c-0.4,1.7-0.6,3.8-0.4,6.4c0.3,3.8,1.3,6.8,2.3,8.8
		c-11.7,2-19.5-0.3-24.1-2.5C475.6,444,449.7,423.7,449.6,423.7z"/>
	<path class="st6" d="M439.7,455.6c11.7,0.4,23.5,0.6,35.2,0.9c4.2,0.2,8.8,0.1,13.9-0.4c8.6-0.8,16.1-2.6,22.1-4.4
		c0,0-24.3,1.6-37.4-14.3c-13.2-15.8-19.4-18.7-19.4-18.7s-9.5,7.9-10,18.8c-0.4,10.9-7.8,8.4-7.8,8.4c1,3.7,1.7,6.6,1.9,7.6
		c0.1,0.3,0.2,0.9,0.7,1.4C439.2,455.4,439.5,455.6,439.7,455.6z"/>
	<path class="st9" d="M455.5,480.1c0,0,0.9,2.7-0.7,6.4c0,0,2.4,1.2,4.8-0.8L455.5,480.1z"/>
	<path class="st10" d="M450.7,494.5c0,0,7.3,3.8,17.7-0.6L450.7,494.5z"/>
	<path class="st11" d="M441.9,474.5c0,0,6.7-5.7,11.6-0.3c-1-0.5-3-1.3-5.8-1.3C444.9,473,442.8,474,441.9,474.5z"/>
	<path class="st11" d="M478,472.5c0,0-9.2-6.2-14.6,1.2c1.2-0.8,3.6-2.1,7-2.5C474,471,476.7,471.9,478,472.5z"/>
	<path class="st11" d="M462.8,467.7c0,0,6.4-4,13.8-2.5C476.6,465.3,468.8,465,462.8,467.7z"/>
	<path class="st11" d="M454.6,467.9c0,0-6.8-3.1-14-0.6C440.7,467.3,448.4,466,454.6,467.9z"/>
	<path class="st9" d="M456.4,495.9c0,0,3,0.1,4.3,0c0,0-2,1.6-2.3,1.6C458,497.6,456.4,495.9,456.4,495.9z"/>
	<path class="st12" d="M404,638.4c0,0-21.9,12.2-23.3,33.2c-1.5,21.1,53.7-3.5,58.6-9.9C444.2,655.4,404,638.4,404,638.4z"/>
	<path class="st13" d="M231.1,560c0,0,11.5-12,28.1,28.4c16.5,40.4,127.5,114.3,180,73.4c-10.8,8.5-18.4,16.5-23.5,22.4
		c-7.1,8.4-11.7,15.3-23,27.7c-3.8,4.3-7.1,7.6-9.4,10c0,2.6,0,5.1,0,7.6c-0.2,20.4-2.3,39.5-5.5,57.3c-9.8,31.8-33,53.4-58.3,55.9
		c-8.5,0.9-18.1-0.9-28.5-6.2c-1.3-0.6-3.6-1.8-6.1-3.3c-4.6-2.8-10-6.1-14.3-12.4c-1.1-1.5-2.5-3.6-3.6-6.8
		c-2.6-7.4-1-14.1,0.1-17.2c-7-8.1-15-17.5-20-29.9c-9.1-22.4-16.3-59.7-8.8-119.7C238.2,647.1,237,561.4,231.1,560z"/>
	<path class="st12" d="M506.2,653.8c0,0,19.9,6.4,26.2,36.1c6.4,29.8,2.1,35.4,2.1,35.4s6.4,10.4,4.7,17c0,0-3.7,5.9-4.3,10.2
		c-0.5,4.4,3.3,28.2,3.3,28.2s2.6,10.1-10.4,16.5c0,0-0.3,28.7-17,45.4L506.2,653.8z"/>
	<path class="st13" d="M522.9,726c0,0,8.3,3.6,10.5,0C533.3,726,531.9,731.4,522.9,726z"/>
	<path class="st13" d="M524.8,807.4c0,0-2,3.9-1.2,11C523.6,818.3,520.5,813.8,524.8,807.4z"/>
	<path class="st13" d="M524.3,787.4c0,0,4.2,3.3,7.8,1.2L524.3,787.4z"/>
	<path class="st9" d="M492.2,473.1c1.1-1.3,3.3-3.8,6.1-4.4c0.7-0.1,1.1-0.1,1.4,0.1c1.1,0.9-0.2,4-1,6c-0.8,2-2.1,4.8-4.4,7.9
		c0,0,5.4-10,4.4-11.8C498,469.1,495.5,470.4,492.2,473.1z"/>
	<path class="st9" d="M491.6,485.4c0.6,2.3-0.3,4.4-1.6,6.8c-5,8.4-11.8,12.4-11.8,12.4c-7.2,4.3-14.4,5.2-14.3,5.2
		c1.7-0.4,3-0.8,3.9-1.2c1.1-0.4,2-0.9,3-1.3c0.3-0.1,1.1-0.5,2-1c0.1-0.1,2.9-1.6,5-3c3.8-2.7,6.5-6.1,7-6.8
		c1.4-1.8,4-5.2,5.3-10.2c0.4-1.1,0.5-2,0.6-2.8C491,483.8,491.4,484.5,491.6,485.4z"/>
</g>
<g class="st0">
	<g class="st14">
		<g>
			<g>
				<g>
					<defs>
						<rect id="SVGID_1_" x="1149.5" y="61.8" width="288" height="306.5"/>
					</defs>
					<clipPath id="SVGID_00000140699649059967557530000000935884050607954101_">
						<use xlink:href="#SVGID_1_"  style="overflow:visible;"/>
					</clipPath>
					<g style="display:none;clip-path:url(#SVGID_00000140699649059967557530000000935884050607954101_);">
						
							<image style="display:inline;overflow:visible;enable-background:new    ;" width="1367" height="769" xlink:href="CBA5C7D3.jpg"  transform="matrix(0.9991 0 0 0.9991 264.0992 -204.5554)">
						</image>
					</g>
				</g>
			</g>
		</g>
	</g>
</g>
<ellipse transform="matrix(0.9358 -0.3525 0.3525 0.9358 -101.6064 296.0137)" class="st16" cx="762" cy="427" rx="30.6" ry="8.2"/>
<g>
	<g>
		<path class="st17" d="M795.3,812.5c4.1,7.1,8.6,10.3,12,11.8c7.4,3.5,13.3,1.3,18,6.5c1.9,2.1,3.7,5.6,2.6,7.8
			c-1.4,2.5-6.2,2.3-8.7,2.2c-23.1-1.1-50.4-2.8-51.5-2.8c0.8-9.1,1.5-18.1,2.3-27.2C778.4,811.4,786.8,811.9,795.3,812.5z"/>
		<path class="st18" d="M792.3,813c1,2.2,2.7,5.4,5.7,8.4c5.5,5.6,11.9,7.2,14.7,7.8c0.3-0.1,0.9-0.2,1.4-0.7c0.8-0.8,0.9-1.7,0.9-2
			"/>
		<path class="st19" d="M798,816.5c0,0-8.8,3.7-7.8,8C790.2,824.5,796.5,825.4,798,816.5z"/>
		<path class="st19" d="M798.9,817.7c0,0-1,0.9-1.4,2.9"/>
		<path class="st19" d="M800.9,819.6c0,0-1,0.9-1.4,2.9"/>
		<path class="st19" d="M802.8,821.5c0,0-1,0.9-1.4,2.9"/>
		<path class="st19" d="M805,823c0,0-1,0.9-1.4,2.9"/>
	</g>
	<g>
		<path class="st17" d="M913.1,792.2c1.9,8,5.4,12.2,8.2,14.7c6.1,5.4,12.5,4.9,15.5,11.2c1.2,2.6,2,6.5,0.3,8.2
			c-2,2.1-6.6,0.5-9-0.3c-21.9-7.5-47.7-16.6-48.7-17c3.3-8.5,6.5-17,9.8-25.5C897.1,786.4,905.1,789.3,913.1,792.2z"/>
		<path class="st18" d="M913.2,801.5c3.7,6.9,9.4,10.2,12,11.5c0.3,0,0.9,0,1.6-0.3c1-0.5,1.3-1.4,1.4-1.7"/>
		<path class="st18" d="M910.1,791.8c0.3,2.4,1.1,5.9,3.1,9.7"/>
		<path class="st19" d="M914.6,796.8c0,0-9.5,1.1-9.7,5.5C904.9,802.3,910.6,804.9,914.6,796.8z"/>
		<path class="st19" d="M915.1,798.2c0,0-1.2,0.6-2.1,2.4"/>
		<path class="st19" d="M916.4,800.6c0,0-1.2,0.6-2.1,2.4"/>
		<path class="st19" d="M917.8,802.9c0,0-1.2,0.6-2.1,2.4"/>
		<path class="st19" d="M919.5,805c0,0-1.2,0.6-2.1,2.4"/>
	</g>
	<path class="st20" d="M868,599.4c16.2,28.3,32.5,56.7,48.7,85c-0.9,36-1.8,71.9-2.8,107.9c-8.7-0.6-17.4-1.2-26.1-1.7
		c-0.4-14.7-0.9-29.8-1.6-45c-0.8-16.8-1.8-33.2-2.9-49.2c-5.1-6.6-10.5-13.4-16.2-20.3c-7.8-9.3-15.6-18-23.2-26.1
		c-9.3,27-11,31.9-11,31.9s-2,10.8-5.8,30.7c-9.5,33.4-18.9,66.8-28.4,100.2c-10.4,0.2-20.9,0.4-31.3,0.6
		c9-26.5,18.4-63.7,20.3-108.9c1.6-37.2-2.4-69-7.3-93.4C809.7,607.1,838.9,603.2,868,599.4z"/>
	<path class="st3" d="M949.1,493.7c-1.6,1.4-3.1,2.8-4.7,4.3c-0.4,0.8-1.8,3.7-5.3,5.2c-2.4,1-4.6,0.8-5.6,0.7
		c-0.9,2.2-2.4,6.8-1.6,12.5c0.4,3.2,1.5,5.8,2.4,7.5c3.4-2.1,8.6-5,15.5-7.1c3.6-1.1,4.2-0.9,8-2.2c3.5-1.2,11-4,15.2-9.8
		c0.4-0.5,1.5-1.9,1.1-2.4c-0.1-0.2-0.5-0.2-0.8-0.2c-2,0.2-3.2,1.9-5.1,2.8c-0.7,0.4-1.9,0.8-3.7,0.8c1.7-0.9,3.5-1.9,5.4-3.2
		c2.8-1.9,5.1-3.8,7-5.6c0.7-1,0.9-2.1,0.5-2.6s-1.2-0.5-1.5-0.5c-1.5,0.1-2.4,1.3-3.9,2.7c-0.5,0.5-1.7,1.2-4.1,2.8
		c-1.2,0.8-3,1.9-5.2,3.1c1.9-1.3,3.9-2.8,5.9-4.5c2.3-2,4.3-3.9,6-5.8c0.6-0.6,1.2-1.1,1.7-1.7c-0.1-0.4-0.2-1-0.6-1.2
		c-1.1-0.7-3.5,0.7-7.8,4.3c-1,0.9-8.1,6.8-8.1,6.8s4.9-4.2,7.5-6.4c0.3-0.2,0.5-0.4,0.8-0.6c1.8-1.4,2-1.5,2.5-2.1
		c0.3-0.4,0.7-1,0.7-1.8c0-0.1,0-1.2-0.5-1.5c-0.8-0.4-2.2,1-3.3,2c-2.1,2-4.6,3.5-6.8,5.4c-3.6,3-9.8,7.2-11.1,5.9
		c-1.3-1.2,2.3-6.6,0.9-7.6C950.2,493.4,949.6,493.5,949.1,493.7z"/>
	<g>
		<g>
			<g>
				<path class="st3" d="M798.5,419c0,0,4.7,11.2-1.4,20c-0.4,0.5-0.7,1.2-0.7,2.1c0.6,5.1,19.5,10.5,30.2,3c2-1.4,3.3-2.9,3.9-3.8
					c-1.6-1.8-2.4-3.3-2.8-4.4c-2-5-1.5-8.4-0.7-16.7C828.7,403.7,798.5,419,798.5,419z"/>
				<path class="st3" d="M797,379.3c-1.6,2.9-3.8,7.8-4.5,14c-1.3,10.6,2.3,18.6,3.8,21.9c2.2,4.8,8.8,19.2,18.6,19.4
					c4.7,0.1,8.1-3,14.7-8.7c3.8-3.3,7.4-6.5,9.5-11.8c1.3-3.3,1.1-5.1,1.7-12.8c1.1-15.4,2.5-14.9,1.8-18.8
					c-1.4-7.8-8.1-17.2-18.3-19.2C813.8,361.3,802.1,367.7,797,379.3z"/>
			</g>
			<path class="st3" d="M793.1,391.1c-1.3-1.2-2.3-1.3-2.8-1.1c-2.4,0.7-2.7,6.5-2.4,9.5c0.1,1.8,0.4,5.8,3.3,7.8
				c0.1,0.1,2,1.3,2.8,0.7c0.8-0.7,0.1-3-0.2-4C792.8,401.4,792.1,397.2,793.1,391.1z"/>
			<path class="st21" d="M799.3,421.5c0.2,1,0.4,2.1,0.7,3.1c1.2,1.5,2.1,2.6,2.7,3.3c1.1,1.4,1.4,1.8,2,2.3c1.1,1,2.1,1.8,2.8,2.2
				c1.8,1.2,3,2,5,2.3c0.7,0.1,2.1,0.3,3.5-0.4c0.7-0.3,1.1-0.7,1.4-0.9c-1.5,0-3.9-0.1-6.5-1.3c-0.7-0.3-2.1-1-4.4-2.9
				C804.5,427.7,801.9,425.2,799.3,421.5z"/>
			
				<ellipse transform="matrix(0.1223 -0.9925 0.9925 0.1223 316.0599 1152.0261)" class="st22" cx="809.4" cy="397.3" rx="2.7" ry="1.8"/>
			
				<ellipse transform="matrix(0.1223 -0.9925 0.9925 0.1223 334.1165 1174.5432)" class="st22" cx="831.1" cy="398.4" rx="2.7" ry="1.8"/>
			<path class="st22" d="M790.3,390c-0.2-3.5-0.4-6.9-0.7-10.3c2.7,0.4,5.3,0.9,8,1.3c-0.6,1-1.2,2-1.8,3.2c-1.3,2.5-2.2,4.9-3,7
				c-0.1-0.2-0.4-0.4-0.6-0.6C791.4,390,790.6,390,790.3,390z"/>
			
				<ellipse transform="matrix(7.129621e-02 -0.9975 0.9975 7.129621e-02 382.1165 1161.8163)" class="st20" cx="815" cy="375.7" rx="10.2" ry="37.9"/>
			<path class="st23" d="M802.6,391.9c0,0,7.1-4.8,13.7,0.4"/>
			<path class="st23" d="M824.3,393.3c0,0,7.1-4.8,13.7,0.4"/>
			<path class="st20" d="M840.7,352.2c0.5,7.3,1,14.6,1.5,21.9c-17.4-0.8-34.8-1.6-52.2-2.4c2.7-7.8,5.5-15.5,8.2-23.4
				C812.4,349.6,826.5,350.9,840.7,352.2z"/>
			<path class="st24" d="M840.7,352.2c-5.4,0.5-13.4,0.9-22.9,0c-9.4-0.9-19.7-2.9-19.7-3.8s11.4-0.9,21.1,0
				C828.4,349.3,835.8,350.9,840.7,352.2z"/>
			<path class="st21" d="M820.1,400c0,0,0.1,7,2.9,8.1l-4.3,0.3"/>
			<path class="st25" d="M811.8,415.9l14.9,0.7c-0.1,0.2-2.1,4.3-6.4,4.7C816.8,421.7,813.2,419.5,811.8,415.9z"/>
			<path class="st24" d="M791.6,367.2c5.3,2.3,13.5,5.1,23.9,5.8c11.5,0.8,20.7-1.2,26.5-3l0.6,5.2c-6.1,1.8-16,3.7-28.1,2.6
				c-10.6-1-18.9-3.9-24.4-6.4C790.5,370.1,791,368.6,791.6,367.2z"/>
			<path class="st21" d="M792.1,394.1c-0.4-0.6-1.6-1.9-2.3-1.6c-0.2,0.1-0.3,0.4-0.4,0.7c-0.4,1.8-0.3,3.4-0.3,3.5
				c0.1,0.8,0.1,1.6,0.3,2.7c0.3,2.1,0.4,3.1,1,4c0.5,0.8,1.3,1.3,1.7,1.6c-0.3-0.3-0.7-0.8-1.1-1.5c-0.1-0.3-0.3-0.7-0.5-1.2
				c-0.4-1.1-0.4-2.1-0.6-2.8c-0.1-0.9-0.5-4.3-0.3-5.5c0.1-0.1,0.1-0.7,0.4-0.7c0.2-0.1,0.5,0.1,0.7,0.3c0.5,0.4,0.6,0.9,0.8,0.9
				C791.9,394.3,792,394.3,792.1,394.1z"/>
		</g>
		<path class="st26" d="M763.5,613.9c0,0-0.7-5.9-0.2-9.2c-6,5.8-10.4,13-17.6,16.6c-0.3,0.1-0.5,0.2-0.8,0.2
			c-0.9-0.1-1-1.5-0.6-2.4c1.6-4.3,6.2-6.6,8.4-10.9c-4.5,2.1-9.1,4.1-13.8,5.8c-1.4,0.5-3.4,0.8-3.9-0.7c-0.4-1,0.4-2.1,1-3
			c-1.2,0.3-2-1.4-1.6-2.6c0.4-1.2,1.6-1.9,2.7-2.5c2.5-1.5,5-3,7.5-4.4c-2.5,0.7-5.1,1.5-7.6,2.3c-1,0.3-2.1,0.5-2.8-0.3
			c-0.5-0.7-0.3-1.8,0.3-2.4c0.7-0.8,1.7-1.2,2.2-1.3c0,0,3.8-1,7.9-3.3c1-0.6,2.5-1.6,4-3.3c0.8-3.5,1.6-7.1,2.4-10.7
			c5,1.4,10,2.7,15.2,4c1.6,0.4,3.3,0.8,4.9,1.2c-1.1,4.7-2.1,9.5-2.7,14.3c-0.6,4.1-1,8.3-1.3,12.5
			C766.7,616.6,764.1,616.3,763.5,613.9z"/>
		<path class="st20" d="M797.7,438.2c-3.8,1.3-7.7,3-11.7,4.8c-10.2,4.7-18.7,10.1-25.5,15.2c-0.3,6.5-0.7,15.7-1.3,26.6
			c-0.8,14.5-1.1,22-1.8,31.2c-0.9,13.2-1.5,21.7-2.5,30.5c-1.3,11.2-3.9,26.9-9.2,45.8c8.6,0.7,17.2,1.3,25.9,1.9
			c7.8-27.3,10.6-49.9,11.7-66c0.8-12.9,0.7-25.6,0.9-25.6s0.7,19.9-0.5,41.8c-1,18.5-3.4,42.4-9.2,70.1c15.1-1.6,30.1-3,45.2-4.6
			C812.2,552.6,805,495.4,797.7,438.2z"/>
		<path class="st24" d="M797.7,438.2c-2.1,6.4-4.3,12.8-6.4,19.2c4.1,9.3,8.2,18.5,12.3,27.9C801.7,469.6,799.7,453.9,797.7,438.2z"
			/>
		<path class="st24" d="M803.7,485.3c-0.9,4.1-1.8,8.2-2.7,12.3c1.9,3.8,3.8,7.6,5.8,11.5L803.7,485.3z"/>
		<path class="st20" d="M830.6,440.1c10.4,1.1,20.8,2.3,31.3,3.4c4.4,8.2,8.8,16.9,13.2,26.1c5.3,11.2,10,22.1,14.3,32.6
			c8.8,3,23.6,6.4,39.6,1.5c2.4-0.7,4.7-1.6,6.9-2.6c-0.4,3-0.6,7.2,0.3,12.1c0.7,4.4,2.1,7.9,3.3,10.5c-9.3,1.8-20,3.2-31.6,3.8
			c-13.5,0.7-25.7,0.4-36.3-0.6c-3.9-11.2-7.8-22.3-11.7-33.5c2.4,11.2,4.5,23.1,6.3,35.6c3.5,24.9,4.8,48,4.9,68.8
			c0,0-8.3,5.2-20.2,7.5L830.6,440.1z"/>
		<path class="st24" d="M830.6,440.2c3.8,5.6,7.6,11.2,11.4,16.8c-2.1,8.9-4.1,17.7-6.1,26.7C834.2,469.1,832.4,454.6,830.6,440.2z"
			/>
		<path class="st24" d="M835.9,483.6c2,3.7,4,7.4,6,11.1c-1,4.4-2,8.9-3,13.3C837.9,499.8,836.9,491.7,835.9,483.6z"/>
		<path class="st27" d="M784,502.6c0,0,10.2,78.6-9.7,111.8c2-9.5,3.8-19.4,5.2-29.9C783.8,554.6,784.8,527.1,784,502.6z"/>
		<path class="st28" d="M745.1,605.8c0,0-6.7,4.5-9.4,4.8C735.7,610.6,740.6,610.7,745.1,605.8z"/>
		<path class="st29" d="M798.4,443.7c0,0,18.3,7.4,32.2-3.6c0,0,20,129.8,20,165.1c0,0-25.3,5.2-31.2,4.7L798.4,443.7z"/>
	</g>
	<path class="st30" d="M840.9,607c1.4,2.9,2.7,6.3,3.9,9.9c1.8,5.5,2.9,10.5,3.6,14.9c-2.2,0.9-4.4,1.9-6.7,2.8"/>
	<path class="st30" d="M834,608.2c0,0,7.2,15.8,10.1,41.7"/>
</g>
<path class="st2" d="M1795.2,451.7c-2.5,6.7-6.7,12.3-14.5,14.6c-10.1,2.9-19.8-0.4-21.8-7.4s4.5-14.9,14.6-17.8
	c6.1-1.7,12-1.2,16.2,1l7.9-36.1c0.3-1.3-0.7-2.6-2-2.7l-47.4-3.4c-1.1-0.1-2.1,0.7-2.3,1.7c-1.8,8.1-3.5,16.1-5.3,24.2
	c-3,13.8-3.4,32.7-20,37.4c-10.1,2.9-19.8-0.4-21.8-7.3c-2-7,4.5-14.9,14.6-17.8c6.1-1.7,12-1.2,16.2,1l11.8-54
	c0.2-1.1,1.2-1.8,2.3-1.7l63.4,4.5c1.3,0.1,2.3,1.4,2,2.7c-3.9,18-7.6,36-11.7,53.9C1796.8,446.9,1796.1,449.4,1795.2,451.7z"/>
<path class="st2" d="M1121.7,178.4c-2,5.1-5.1,9.3-11,11c-7.7,2.1-15.1-0.3-16.6-5.6s3.5-11.3,11-13.4c4.5-1.4,9-0.9,12.2,0.8
	l5.9-27.3c0.2-1.1-0.5-2-1.5-2.1l-35.9-2.6c-0.9,0-1.7,0.5-1.8,1.4c-1.4,6.2-2.7,12.2-3.9,18.4c-2.3,10.4-2.6,24.7-15.1,28.3
	c-7.7,2.3-15.1-0.3-16.6-5.6c-1.5-5.3,3.5-11.3,11-13.4c4.5-1.4,9-0.9,12.4,0.8l8.9-40.8c0.2-0.8,0.9-1.4,1.8-1.4l47.9,3.5
	c1.1,0,1.8,1.1,1.5,2c-3,13.6-5.7,27.3-8.9,40.8C1122.9,174.7,1122.3,176.7,1121.7,178.4z"/>
<path class="st2" d="M1582.1,211.1c-2.4,1.6-6.4,4.4-8.2,9.3c-0.9,2.5-0.9,4.7-0.9,5.6c0,6.5,0.3,25.3,0.9,50.6
	c-11.2,4.2-20.3,5.1-26.7,5c-7.4-0.1-8.6-1.3-29.4-4c0,0-8-1-21.9-1.5l0,0c-4.5,0-13.9,0.1-18.6,5.6c-0.6,0.8-1.5,2.1-2.2,4.1
	c-0.3,1.1-0.7,2.8-0.2,3.1c0.2,0.1,0.5,0,0.7-0.1c1.7-0.8,2-2.9,3.9-4.8c0.4-0.4,1.7-1.6,3.7-2c0.8-0.2,1.4-0.1,1.8-0.1
	c-3.1,1.6-7.5,4.4-8.5,8c-0.2,0.6-0.6,2,0,2.4c0.8,0.5,2.5-1,2.6-1.1c3-3.9,5.9-5.5,7.8-6.2c1.3-0.5,2.3-0.7,2.4-0.5
	c0.2,0.3-2.4,1.1-3.4,3.4c-0.4,1.1-0.6,2.6,0,2.9c0.7,0.4,2.1-1,2.5-1.3c1.9-1.7,6.6-3.1,18.3-2.1c0,0,29.1,11.6,39.2,12.6
	c10,1,30.4-2.5,30.4-2.5c4.8,7.3,4.8,19.6,4.8,19.6l-30.4,2.3l-94.3-37c-30.2-24.1-89.3-38.7-89.3-38.7l-11.1-10.1
	c0,0-23.1-22.4-31.2-20.6c-8.1,1.7-8.6,12.8-8.6,12.8l30.9,28.9l13.5,2.7c0,0,23.8,10.4,38.6,21.1c14.8,10.8,30.9,17.8,30.9,17.8
	c26.5,25.5,42.6,27.5,42.6,27.5l52.3,40.6c-3.6,20.4,7,43.9,7,43.9c-4,36.2,9.1,68.4,9.1,68.4c-7.3,21.2-4.4,56.1-4.4,56.1
	s19.7,45.8,14.2,52c-5.6,6.2-6.4,10.9-6.4,10.9c3.3,10.9,13.4,15.4,13.4,15.4s4.7,44.7,14.4,28.8c9.8-15.9-1.3-59.5-1.3-59.5
	s8,54.5-0.7-1c-8.7-55.6-6.4-79.2-6.4-79.2c9.4-22.2,5.4-47.3,8.4-54.7s1.6-52,1.6-52c8.8-11.4,23.4-18.1,43.5-35
	s23.1-38.2,23.1-38.2c7.5-4.9,13.2-22,7.7-27c-5.5-5.1-6.5-19-6.5-19c10.7-14.1,28.2-56,31.2-63.4s8.8-53.7,8.8-53.7
	c20-11.2,24.4-19.1,24.3-21.4c0-0.3-0.1-0.4-0.1-0.4c-0.3-0.4-1.4,0.1-2.7,0.9c-2,1.2-3.6,2.2-4.5,3.2c2.1-2.9,3.9-5.2,5.3-6.9
	c1.8-2.2,2.8-3.4,3.6-3.9c1.7-1.1,3.4-1.4,4.3-3.1c0.1-0.2,0.7-1.3,0.3-1.8c-0.4-0.4-1,0.2-3.9,0.8c-0.7,0.2-1.9,0.4-2.9,1.3l0,0
	c-1.3,1.1-3.1,2.8-5.2,5.1c-2.2,2.4-3.5,4.2-3.6,4.2c-0.1-0.1,1.2-1.8,7-9.8c0,0,3.2-2.8,3.2-5c-0.1-0.7-0.4-1.1-0.4-1.1
	s-0.2-0.2-0.4-0.3c-0.8-0.3-5.4,4.4-6.1,5.1c-0.5,0.9-3.3,3.8-8.8,9.6c-5.3,5.6-6.6,5.3-10.8,9.9c-3.5,3.8-5.7,7.4-7,9.7
	c0,0-15,34.1-17.6,43.3c-2.7,9.1-3.3,17.2-3.3,17.2s-23.4,41.9-23.9,41.9c-0.6,0-1.2-2-1.2-2c0.2-5.8,1.9-9.3,3.6-11.6
	c1.8-2.5,4.8-5.1,4-7.1c-0.4-1.1-1.8-1.7-1.9-3.2c0-0.7,0.2-1.3,0.4-1.6c0-0.1-0.1-0.6-0.5-0.8c-0.3-0.2-0.8-0.3-1,0
	c-0.1,0.1-0.1,0.2-0.1,0.3c0.6-1.5,0.2-2.3,0.2-2.3c-1.3-0.3-2.2-2.2-2.6-2.9s1.1-3.9,1.2-4.7s-0.8-0.6-0.8-0.6
	c-3.3,0.6-10.3-3.4-10.3-3.4l-12.2-12.2C1603.2,203.7,1591.4,204.5,1582.1,211.1z"/>
<circle class="st2" cx="523.2" cy="88" r="29.5"/>
<circle class="st2" cx="844.6" cy="162.6" r="51.4"/>
<circle class="st2" cx="1482.5" cy="144.7" r="17.9"/>
<g>
	<path class="st31" d="M1117.9,460.3c-1.1,15.3-1.7,28.4,6.6,34.7c6.3,4.7,16.1,4.3,23.2,1.8c7.7-2.9,12-8.2,13.8-10.6
		c0.7-8.8,1.4-17.8,1.9-27.1c0.6-11.6,0.9-22.7,1.1-33.6c0.3-3.1,0.9-14.3-6.6-24.6c-11.3-15.3-30.6-14.3-32.1-14.3
		C1121.6,416.6,1119.3,441.6,1117.9,460.3z"/>
	<path class="st32" d="M1132.6,474.7c-2,0.2-4.3-1.8-6.9-6.4c0,0-8.3-11.9,0.6-16.3c8.9-4.4,14.6-12.5,14.6-12.5
		C1139.6,462.4,1136.8,474.2,1132.6,474.7z"/>
	<path class="st3" d="M1122.8,449.6c-1.6,0.7-4.3,1.7-7.4,1.2c-6.6-0.9-9.4-8.9-11.5-8.1c-1.8,0.7,0.3,7-2.2,16.1
		c-0.4,1.6-1,3.4-2.5,5.2c-2.2,2.6-5,3.7-6.6,4.2c3.4,2.9,9.7,7.2,18,7.5c10.3,0.4,21.2-5.3,20.8-7.9c-0.1-0.5-0.5-0.5-1.4-1.2
		c-1.2-1.1-3.1-3.6-2.1-19c0.1-0.4,0.1-0.8,0.1-0.9C1126.3,447.7,1124.6,448.6,1122.8,449.6z"/>
	<path class="st21" d="M1114.4,456c1.2,0.6,4,1.6,7.6,1c2.4-0.4,4.1-1.2,5.1-1.8l0.8-3.5L1114.4,456z"/>
	<path class="st3" d="M1131.5,395.2c-11.3-3.9-21,2.1-23.4,4c-1.4,1-4,3-5.5,6.6c-0.6,1.6-0.7,2.8-0.9,4.1c-0.8,6-1.7,8-2.4,11.4
		c-0.4,2.3-1.8,10.9,1.6,19.7c3.2,8.4,9.5,13.3,12.9,15.6c2.8-0.5,18.8-3.6,28.2-18.6c6.3-10,6.3-20,6.2-24
		C1147.8,413.6,1144.7,399.9,1131.5,395.2z"/>
	<path class="st31" d="M1151.6,408.2c-8.6-7.2-17.4-14.3-26-21.4c0,0,0,0-10.5,2.9c-10.5,2.9-13.1,17.3-13.1,17.3
		c5.1-7.7,16.8-6.4,16.8-6.4C1129.8,403,1140.8,405.6,1151.6,408.2z"/>
	
		<ellipse transform="matrix(0.1968 -0.9804 0.9804 0.1968 488.7771 1449.7708)" class="st22" cx="1129.2" cy="426.6" rx="2.6" ry="1.7"/>
	
		<ellipse transform="matrix(0.1968 -0.9804 0.9804 0.1968 478.2574 1425.6018)" class="st22" cx="1109.2" cy="420.9" rx="2.6" ry="1.7"/>
	<path class="st23" d="M1123.6,418.1c6.4-2.4,16,7.1,12.3,2.9"/>
	<path class="st23" d="M1115.9,415.7"/>
	<path class="st23" d="M1103.4,412"/>
	<path class="st21" d="M1117.3,432.8l-3.9-1.6c3.1-2,3.2-5.7,4.1-8.3"/>
	<path class="st25" d="M1112.3,445c-3.9-1.7-4.4-6.1-4.4-6.3l13.6,3.9C1119.1,445.4,1115.3,446.3,1112.3,445z"/>
	<path class="st31" d="M1157.9,411.3c-3.8,10.8-7.5,21.5-11.3,32.4c-17.7-9.2-31.4-54.1-31.4-54.1
		C1129.4,396.9,1143.6,404,1157.9,411.3z"/>
	<path class="st33" d="M1141.2,442.2c0.8-0.4,1.2-1.4,1-2.2c0.2,0.1,0.4,0.2,0.6,0.4c0,1-0.5,1.9-1.3,2.4c-1.1,0.6-2.7,0-2.8-0.4
		c0-0.2,0.2-0.3,0.4-0.4C1139.7,442.4,1140.7,442.5,1141.2,442.2z"/>
	<g>
		<g>
			<g>
				<path class="st26" d="M1021.4,431.7c2.2,9.5,5.3,20,9.8,31.2c1.9,4.6,3.8,8.9,5.8,12.9c2.3-0.3,5.8-0.7,10-1.5
					c2.6-0.4,4.2-0.8,5.8-1.1c3.4-0.6,8.3-1.5,14.5-2.2c0.5,1.5,1,3.1,1.4,4.9c1.5,6.6,1.1,12.5,0.4,16.8c-5.2,0.7-9.8,1.1-13.8,1.6
					c-16.4,1.7-24.4,1.6-31.3,1c-6.6-0.5-12.6-24.8-16.5-62.1c2-0.5,4.3-0.9,6.8-1.2C1016.9,431.8,1019.3,431.7,1021.4,431.7z"/>
			</g>
			<g>
				<path class="st26" d="M1011.7,437.5c-1.1,0.2-5.3-0.2-5.5-4.2c-0.3-5,0.7-9.2,2.9-13.8c-0.7,0.5-1.4,3-2.2,4.5
					c-0.9,1.7-2,2.5-3.4,2.1c-0.9-0.2-0.5-2.5-0.5-3.1c0.4-2.3,0.8-4.6,1.1-6.9c0.2-0.9,0.3-1.9,0.9-2.7c0.6-0.8,2.7-1.3,3.7-1.1
					c0.1-1.4,0.5-2.6,1.3-3.4s2.1-1.3,3.4-1.2c0.3-1.8,1.8-3.4,3.7-3.7c1.9-0.3,4,0.9,4.5,2.5c0.4-1.8,0.7-2.8,1.5-3.7
					c0.8-0.8,2.1-1.4,3.3-1.1c0.7,0.2,1.3,0.7,1.8,1.2c4.2,4.5,5.3,10.8,4.1,16.5c-1.2,5.7-7.2,12.2-10.5,17.2
					C1017.3,436.9,1016,436.7,1011.7,437.5z"/>
				<path class="st34" d="M1012.9,417.8c-0.1,1.5-0.3,3.1-1.7,4.1c-0.7,0.5-1.8,0.8-2.3,0.2c-0.3-0.3-0.3-0.7-0.3-1.1
					c0.1-2.5,0.2-5.1,0.2-7.7"/>
				<path class="st34" d="M1016.9,420c2.6-3.2,7.3-4.3,11.8-2.6c2.2-1.8,4.3-3.7,7.1-4.3c1.1-0.2,2.5-0.1,3.2,0.9
					c0.6,0.7,0.5,1.6,0.2,2.3c-0.3,0.6-0.9,1.2-1.5,1.6c-3.4,2.8-6.5,5.9-9.3,9.3"/>
				<path class="st35" d="M1024.6,412.5c-1.1,0.8-2.2,1.1-2.7,0.6c-0.3-0.3-0.3-0.9-0.4-2.1c0-0.7,0-1.2,0.1-1.6"/>
				<path class="st34" d="M1018.8,409.9c0.2,2.5-0.6,5-2.3,7.1c-0.4,0.5-0.8,0.9-1.5,1.2c-0.6,0.2-1.5,0.3-2,0
					c-0.8-0.5-0.8-1.6-0.6-2.4c0.4-2.1,0.8-4.4,1.3-6.5"/>
			</g>
		</g>
		<path class="st36" d="M1093.9,493.7c-0.1,0.5-0.2,1.1-0.7,1.5c-0.4,0.4-1,0.5-1.6,0.7c-7.4,1.9-14.9,3.9-22.3,5.8
			c-3.8-1.8-6.1-5.1-7.9-8.3c-4.1-7.3-6.7-15.2-7.6-23.2c11.2-3.1,27.3-4.7,39-3.5c2.7,3.8-0.1,9.2,1.7,13.9
			C1095.7,484,1095,488.8,1093.9,493.7z"/>
	</g>
	<path class="st26" d="M1041.1,629c-3.2,0.2-6.3,25.7-5,57.2c0.8,17.5,2.8,34.7,4.4,47.4c0.1,1,0.2,2,0.4,2.9
		c1.2,9.5,2.4,17.3,3.2,22.9c2.9,0.8,7.3,1.6,12.6,1.3c4.9-0.3,8.9-1.5,11.5-2.6c-3.7-15.2-5.3-28.2-6.1-38
		c-1-11.9-1.4-17.8-0.5-25.7c1.3-12,4.1-14.9,6.5-28.2c1.8-10.2,2-18.6,1.9-23.9c-1.8,2.9-4.4,4.9-7.3,6c-3.3,1.2-6.6,1-9,0.2
		C1044.2,645.4,1043.7,628.9,1041.1,629z"/>
	<g>
		<path class="st26" d="M1090,631.8c-4.2,2.1,0.4,25.8,11.4,49c6,12.7,15.6,28.8,26.3,48.6c0.2,0.4,0.7,1.3,1.4,2.6
			c4.6,8.4,8.5,15.2,11.3,20.2c3-0.3,7.4-1.2,12.2-3.4c4.5-2.1,7.7-4.6,9.8-6.6c-10-13.1-16.2-25.3-20.1-34.3
			c-3.4-7.9-6.5-15-8.3-25.2c-2.1-11.6-0.8-16.6-2.9-28.5c-1.8-10.1-4.8-18-6.9-22.9c-1.1,1.5-3.3,4.2-7.1,6.2
			c-0.5,0.3-4.1,2.1-8.5,2.2C1098.1,639.8,1092.8,630.4,1090,631.8z"/>
		<path class="st37" d="M1139.5,752.4c-2.7,7.2-6.2,11.6-9.1,14.4c-4.6,4.6-10.2,7.3-10.1,12.1c0,0.6,0,2.5,1.2,3.6
			c3.2,3.2,11.2-1.7,31.1-10.5c13.8-6.1,22.4-9.2,22.1-13.7c0-0.9-0.3-1.4-0.9-2.2c-1.8-2.9-5.2-7.7-11.7-14.2
			c-0.2,0.2-0.6,0.4-0.8,0.6C1156.1,746.5,1148.9,750.3,1139.5,752.4z"/>
		<path class="st38" d="M1153.4,728.3c-3.3,1.7-6.8,3.5-10.5,5.2c-3.6,1.7-7,3.2-10.4,4.6c2.7,4.8,5.4,9.6,8.1,14.3
			c0,0,12.7-3.1,22.1-9.6C1159.5,738,1156.4,733.2,1153.4,728.3z"/>
	</g>
	<path class="st39" d="M1047.4,572.1c0,0-27.3,45-16.9,77.8c14.7,7.9,33.6,16.4,56.5,23.1c25.1,7.3,47.6,10.2,65.2,11.2
		c-3.6-17.6-6.6-37.5-8.2-59.5c-1.2-16.5-1.4-32-1.1-46.1c-2.4,0.1-4.9,0.3-7.3,0.3C1104.3,580.2,1074.8,577.4,1047.4,572.1z"/>
	<g>
		<g>
			<path class="st36" d="M1067.5,533.2c0.6-1.3,1.4-3.5,1.8-6.4c0.2-1.6,0.2-3.6-0.3-6c-3.7-16.9,0.1-35.2,10.2-49.5
				c0.6-0.8,1.2-1.7,2.1-2.4c3.3-2.7,8.8-2.8,13.6-2.6c2.1,1.8,5.9,4.5,11.3,5.4c5.7,1.1,10.3-0.5,15.6-2.3
				c3.6-1.2,8.8-3.4,14.4-7.5c4.4,0.2,8.1,0.6,10.9,1c4.9,0.7,6.7,1.3,8.4,2.7c2.1,1.7,2.9,3.9,3.3,4.8c3.1,8.2-2.2,21.1-9.6,42.1
				c-0.8,2.4-1.6,4.9-2.4,8.3c-1.7,7.4-1.5,13.2-1.5,15.7c0.1,10.7-1.2,9.6-2,30.1c-0.4,10.5-0.7,24.6,0,41.5
				c-10.2-1.2-25-4.2-40.7-12.7c-4.5-2.4-6.1-3.7-9.2-5.4c-10.1-5.4-26.5-9.5-53.5-3C1054.8,558.6,1065.5,537.6,1067.5,533.2z"/>
		</g>
		<path class="st40" d="M1070.3,493c-0.5,2.2-1,4.4-1.4,6.6c-0.1,0.5,0.8,0.5,0.9,0c1.4-8.6,4.1-17,8.1-25.1
			c0.2-0.5-0.6-0.7-0.8-0.2c-2.8,5.7-4.9,11.5-6.4,17.3c-1.5-4.4-2.3-8.9-2.1-13.5c0.1-0.4-0.8-0.4-0.8,0
			C1067.6,483.1,1068.5,488.2,1070.3,493L1070.3,493z"/>
	</g>
	<g>
		<g>
			<g>
				<path class="st26" d="M1081,530.8c0.3-1.2,0.7-2.1,0.8-2.4c0.8-1.8,2-3.1,2.7-3.8c2.3,1,6.1,2.4,10.9,3.8
					c11.2,3.3,17.3,3,29.5,5.6c3.6,0.8,9,2.1,15.5,4.2c-0.2-1.2-2.4-14.6-3.5-25.6c-0.2-2.1-0.6-5.7,0.3-10.1
					c0.4-2.1,0.9-3.8,1.4-4.9c3.6,0.4,7.4,1,11.2,1.6c4.2,0.7,8.2,1.4,12,2.2c-0.2,3-0.5,7.9-0.8,13.9c-1.6,30.7-0.4,34.8-2.9,38.1
					c-2.8,3.6-14.1,11.4-77.1-17.5C1080.5,533.6,1080.7,531.9,1081,530.8z"/>
			</g>
			<path class="st26" d="M1085,537.2c-7.2-0.8-16.4-2.1-18.1-1.5c-2.4,0.8-4.8,2.1-7.4,2.8c-3.4,0.8-7,0.4-10.5,0
				c-0.8-0.1-1.6-0.2-2.3-0.5c-0.7-0.4-1.1-1.1-0.9-1.7c0.5-1,2.2-1.1,3.5-1c5.9,0.3,8.7,0.5,12.5-3.2c-6.7,0.6-12.9,0.9-19.2,1
				c-0.9,0-1.8,0-2.7-0.3c-0.8-0.3-1.5-1.1-1.4-1.8c0.2-1,1.8-1.4,3-1.5c6.3-0.8,12.6-1.6,19-2.4c-6.2,0.4-12.5,1-18.8,1.6
				c-1.1,0.2-2.4,0.2-3.5-0.2s-1.9-1.5-1.4-2.4c0.5-0.7,1.5-0.9,2.5-1.1c6.8-1.1,13.7-2.4,20.6-3.5c-6-1.2-11.8-1.7-17.7-2.2
				c-1-0.1-2.1-0.2-2.9-0.6c-0.8-0.5-1.5-1.3-1.1-2.1c0.5-0.9,2-1.1,3.2-1.1c12.4,0.1,21.7,0.8,32.2,0.8c-3.7-6.4-6.4-9.4-3.7-11.7
				c0.8-0.7,2.1,0.4,2.8,1.1c6,6.3,9.5,9.9,12.8,17.5C1087.3,527.4,1085.1,532.4,1085,537.2z"/>
		</g>
		<g>
			<path class="st36" d="M1129.8,505.6c6.5,1.7,11.6,2.4,22.4,1.4c2.2-0.2,6.6-0.6,12.5-1.1c0.2-9.2-0.4-16.9-1.1-22.6
				c-1.5-12.1-3.5-15.5-5.7-17.9c-4.6-4.8-10.5-5.5-11.5-5.6c-1-0.1-9.3-0.8-13.1,4.3c-2,2.6-1.9,5.2-1.7,10
				C1132.2,491.6,1123.4,503.9,1129.8,505.6z"/>
			<path class="st40" d="M1127,489.1c0.5,1.5,1.4,3.1,2.2,4.6c0.8,1.5,1.8,3.1,2.8,4.5c0.2,0.2,0.5,0.2,0.6,0.2c0,2.5-0.3,5-1,7.4
				c-0.1,0.2,0,0.4,0.2,0.5c1.2,0.5,2.5,1.1,3.8,1.6c0.6,0.2,1.1-0.5,0.5-0.8c-1.1-0.5-2.4-1-3.5-1.5c0.5-2.2,0.8-4.4,0.8-6.6
				c0.1-8.4-2.7-16.7-0.6-25.1c0.1-0.4-0.8-0.6-0.8-0.2c-0.5,2.2-0.8,4.6-0.8,6.9c0.1,5.6,1.3,11.2,1.4,16.9
				c-0.9-1.3-1.8-2.7-2.5-4.1c-0.8-1.5-1.5-3.1-2.2-4.6C1127.8,488.6,1126.9,488.8,1127,489.1z"/>
		</g>
	</g>
	<path class="st32" d="M1118.9,400.4c-0.2-10.1,6.8-13.6,6.8-13.6C1119.3,395.2,1118.9,400.4,1118.9,400.4z"/>
	<path class="st41" d="M1153.4,673.1"/>
	<path class="st41" d="M1127.4,614.2"/>
	<path class="st41" d="M1107.6,614.2c0,0-4,33.5,14.7,57.5"/>
	<path class="st41" d="M1082.2,614.2c0,0-4.3,30,12.9,48"/>
	<path class="st23" d="M1104.2,413.5c0,0,7.6-2.2,11.9,4.2"/>
	<path class="st37" d="M1043.3,759.4c-5.1,5.7-10,8.5-13.7,10.1c-6,2.6-12.2,3.1-13.8,7.6c-0.2,0.6-0.9,2.3-0.2,3.8
		c1.8,4.1,11,2.5,32.8,1.6c15.1-0.6,24.2-0.4,25.6-4.7c0.3-0.8,0.2-1.4,0-2.4c-0.6-3.3-2-9.1-5.7-17.5c-0.3,0.1-0.7,0.2-1,0.3
		C1060.9,759.9,1052.8,760.8,1043.3,759.4z"/>
	<path class="st38" d="M1064.9,742c-3.7,0.4-7.6,0.7-11.7,1c-3.9,0.2-7.7,0.4-11.4,0.5c0.8,5.4,1.5,10.9,2.3,16.3
		c0,0,12.9,1.8,24.1-0.9C1067.1,753.3,1066,747.7,1064.9,742z"/>
</g>
<path class="st41" d="M1057.7,611.7c0,0-10.3,23-0.6,41.3"/>
<path class="st2" d="M667,331.8c-0.7,2.5-1.9,4.5-4,5.3c-2.8,1-5.5-0.1-6-2.7s1.3-5.5,4-6.5c1.6-0.7,3.3-0.4,4.4,0.4l2.1-13.2
	c0.1-0.5-0.2-0.9-0.5-1l-13-1.2c-0.3,0-0.6,0.2-0.7,0.7c-0.5,3-1,5.9-1.4,8.9c-0.8,5-0.9,11.9-5.5,13.7c-2.8,1.1-5.5-0.1-6-2.7
	c-0.5-2.5,1.3-5.5,4-6.5c1.6-0.7,3.3-0.4,4.5,0.4l3.2-19.7c0.1-0.4,0.3-0.7,0.7-0.7l17.4,1.7c0.4,0,0.7,0.5,0.5,0.9
	c-1.1,6.5-2.1,13.2-3.2,19.7C667.5,330.1,667.2,331,667,331.8z"/>
<path class="st2" d="M198.2,401.6c-1.3,3.4-3.4,6.2-7.3,7.3c-5.1,1.4-10-0.2-11-3.7s2.3-7.5,7.3-8.9c3-0.9,6-0.6,8.1,0.5l3.9-18.1
	c0.1-0.7-0.3-1.3-1-1.4l-23.8-1.7c-0.6,0-1.1,0.3-1.2,0.9c-0.9,4.1-1.8,8.1-2.6,12.2c-1.5,6.9-1.7,16.4-10,18.8
	c-5.1,1.5-10-0.2-11-3.7s2.3-7.5,7.3-8.9c3-0.9,6-0.6,8.2,0.5l5.9-27.1c0.1-0.5,0.6-0.9,1.2-0.9l31.8,2.3c0.7,0,1.2,0.7,1,1.3
	c-2,9-3.8,18.1-5.9,27.1C199,399.2,198.6,400.5,198.2,401.6z"/>
<g class="st0">
	<defs>
		<rect id="SVGID_00000097497782493247093290000015702971990127624119_" x="1144" y="617.1" width="470.2" height="345.9"/>
	</defs>
	<clipPath id="SVGID_00000025427500739232897020000004488535824434307498_" class="st14">
		<use xlink:href="#SVGID_00000097497782493247093290000015702971990127624119_"  style="overflow:visible;"/>
	</clipPath>
	
		<g transform="matrix(1 0 0 1 0 3.051758e-05)" style="display:inline;clip-path:url(#SVGID_00000025427500739232897020000004488535824434307498_);">
		
			<image style="overflow:visible;" width="1366" height="768" xlink:href="CBA5C7D0.jpg"  transform="matrix(1.1905 0 0 1.1905 137.3457 426.3699)">
		</image>
	</g>
</g>
<g>
	<g>
		<path class="st2" d="M1327.2,968.7c0,0-12,2.9-17.2-6.5s-16.5-17.2-16.5-17.2l-11.7-13.6l-1.6-10c0,0,2.5-16,0-22.4
			c-2.5-6.5,5.3-11.4,11.3-10.8c0,0,11.2-11.2,18.6-2.6c7.3,8.6,6,17.3,7.1,27.4s16.4,18.6,16.8,33.7
			C1334.5,961.8,1333.9,964.4,1327.2,968.7z"/>
		<path class="st42" d="M1299.8,883c0,0-11.3,9.3,6,34.8c17.3,25.5,19.2,44.9,18.8,48.1s0.1,3.2,0.1,3.2c0.7,0,1.7-0.2,2.8-0.6
			c2.8-1.1,4.2-3.3,4.8-4.2c1.5-2.4,1.7-4.7,1.7-5.8c0,0,2.2-15.5-3.4-23.7l-7.5-12.7c-1.7-3.4-3.4-6.8-5.1-10.1
			c-0.3-2.3-0.8-5.8-1.5-10.2c-0.6-4.3-1-6.3-2-8.8c-0.9-2.4-2-4.1-2.8-5.3c-0.6-1-1.7-2.7-3.8-4c-1.1-0.7-2.1-0.9-2.3-1
			C1303,881.9,1300.9,882.6,1299.8,883z"/>
		<path class="st43" d="M1291.6,888.2c-0.8-1.2-1.7-3-1.9-5.2c-1.1-11.7,18.5-21.3,38.8-33.4c19.7-11.8,41.9-25.2,57.9-42.7
			c8.3-9.1,19.4-24.3,26.9-48.6c-3.8,1.2-12.1,3.3-22,0.6c-3.3-0.9-16.5-4.4-21.4-15.5c-4.8-11,0-26,12.5-36
			c-16.3,3.6-34.6,8.9-54.1,16.8c-44.4,18.1-77.1,42.8-98.9,62.6c-3.3,10.7-6.2,24.3-6.5,40.1c-0.8,40.3,15.4,70.8,24.4,85l6.9,16
			l22-4.7l5.6-30.2L1291.6,888.2z"/>
		<path class="st44" d="M1276.5,921.7l3.7-0.2c0,0,2.3-12.2,0.3-21.5L1276.5,921.7z"/>
		<path class="st45" d="M1398.7,760.1c0,0-48,59-80.6,81c-32.7,22-28.4,41.9-28.4,41.9s-1.5-13,25.6-25.7
			c27.1-12.6,84.1-45.3,98-99.1C1413.3,758.3,1408.1,758.7,1398.7,760.1z"/>
		<path d="M1362.8,901.9l1.2,1.7c0,0,19-16.1,17.5-19.3C1380.1,881.1,1359.7,891,1362.8,901.9z"/>
		<path class="st43" d="M1372.2,820.6c0,0,4.2,36,7.4,53.5l5.8,10.7c0,0-13.6-5.8-23.6,19.4l-14.6,2.3c0,0-4.2-21-10.7-31.7
			c-6.5-10.7-2.4-27.3-2.4-27.3L1372.2,820.6z"/>
		<path class="st45" d="M1337.9,844.9c0,0,0.9,20.2,10.6,33.8s13.3,25.6,13.3,25.6s8.5-23.8,23.6-19.4l-5.8-10.7l-7.4-53.5
			L1337.9,844.9z"/>
		<path class="st2" d="M1366.6,960.3c0,0-9.5-5.7-6.9-15c2.6-9.3,0.2-21.4,0.2-21.4l1.1-16.1l5.3-7.5c0,0,11.7-8.7,14.2-14.4
			c2.5-5.7,10.6-4,14.1,0.2c0,0,14.3-0.1,13.5,10.1c-0.7,10.2-7,14.9-12.7,22.1c-5.7,7.2-1.2,22.3-10.5,32.2
			C1375.6,960.5,1373.6,961.8,1366.6,960.3z"/>
		<path class="st42" d="M1403.2,888c0,0-13.1-1.1-18.1,26.1c-5,27.3-16.1,41-18.4,42.8c-2.3,1.8-2,2.1-2,2.1c0.5,0.4,1.2,1,2.2,1.4
			c2.5,1.1,4.8,0.5,5.8,0.3c2.4-0.6,4-1.9,4.8-2.7c0,0,11.2-8.6,12.8-17.4l3.2-12.9c1.1-3.2,2.1-6.5,3.2-9.7
			c1.2-1.7,3.1-4.2,5.5-7.5c2.3-3.2,3.4-4.6,4.3-6.9c0.9-2.1,1.3-3.9,1.5-5.2c0.3-1,0.6-2.8,0.1-5c-0.3-1.2-0.7-1.9-0.9-2.1
			C1405.9,889.4,1404.1,888.4,1403.2,888z"/>
	</g>
	<path class="st46" d="M1555.4,752.8c0,0,42.4-2.1,56.6,21.7s0.6,73.8,25,94.3s9.3,65.2-25.2,50.1c-34.5-15.1-51.4-74.9-52.7-84.6
		c-1.3-9.7-6.5,35.4,2.2,54.4c0,0-23.1-25.5-15.8-83.3c0,0,0.7-3.6,2.4-4C1549.8,800.9,1555.4,752.8,1555.4,752.8z"/>
	<path class="st26" d="M1382.4,707.3c0,0,47.9-3,57.4-9.9c9.5-6.9-26.5,60.9-26.5,60.9s-38.4,12.4-44.6-18.5
		S1382.4,707.3,1382.4,707.3z"/>
	<ellipse class="st47" cx="1385.4" cy="717" rx="3.4" ry="1.3"/>
	<path class="st48" d="M1413.3,758.3c0,0,23.5,13.4,37.5,28.9c14,15.5,49.4,41.4,49.4,41.4l-1.7-3.9c0,0-14.7-11.2-12.5-20.5
		c2.2-9.3,42.3,32.2,42.3,32.2s4.5-6.7,2.6-18.8c0,0-14.9-17.1-26.8-56.9c0,0-2.8-13.7,3.7-27.3c6.5-13.6,17-4.1,20.7,2.2
		c0,0,6.5,6.3,14.5,7.8l8.6-8.4c0,0-1.7-22-25.2-30c0,0-13.2,4.7-28.1-1.7s-28.9-5-28.9-5s-25.6-10-28-1.4
		C1439.1,705.5,1413.3,758.3,1413.3,758.3z"/>
	<path class="st26" d="M1536.8,710.3c0,0,53.2-22.4,61.8-33.1c8.6-10.8,44.5-47,44.5-47c-0.9-4.8-2.1-11.8-3.2-18.8
		c-0.2-1.4-0.6-3.6,0.3-4.1c1-0.5,3.4,1.5,4.9,3.7c1.5,2.4,1.5,4.4,2,4.4c1.2-0.1,1.6-6.5,1.6-6.5c-0.3-6.3-0.5-11-0.5-12.4
		c0-0.2,0-0.9,0.2-1.7c0.1-0.4,0.5-1.9,1-1.9c1.2-0.1,2.8,9.2,3.6,13.6c0.5,2.7,0.8,5,1,6.5c0.2-0.9,0.5-2.3,0.6-4
		c0.4-4.1,0.6-6.4-0.4-8.9c-0.5-1.4-1.4-3-1.1-5c0.1-0.9,0.4-1.1,0.5-1.1c0.8-0.2,2.2,2.1,2.6,2.9c1.6,2.7,2.2,5.1,2.3,5.5
		c1,4.1,0.7,8,0.3,10.7c0.2-1.2,0.4-2.4,0.6-3.8c0.4-4.6-0.2-8.5-1-11.5c-0.1-0.7-0.3-1.9,0.2-2.2c0.6-0.3,2,1.3,2.5,1.8
		c2.9,3.4,2.6,11.2,2.1,16.2c0.9-2.2,0.7-9.1,1.8-11.4c0.2-0.4,0.5-1,0.8-1c0.8,0.1,0.7,5.7,0.7,6.4c0,1.8-0.2,4.5-0.8,7.7
		c0,4.2-0.7,14.7-8.3,21c-0.7,0.6-1.6,1.2-2.5,1.8c0,0-20.3,27.4-45.5,52.2s-57.7,44.8-57.7,44.8S1548.6,718.6,1536.8,710.3z"/>
	<path class="st26" d="M1493.1,819.8c1.3,1.3,2.4,2.3,3.1,3c1,0.9,1.5,1.4,2.1,2.1c0.5,0.7,1,1.6,1.5,2.9c7.6,22.2,12,45.7,12,45.7
		c0.3,1.6,2,10.6,4.4,17.8c2.2,6.6,4.4,11.3,5.3,13.3c5.1,10.9,15.9,34,30.2,64.7c12-0.4,24.1-0.8,36.4-1c2.5,0,5-0.1,7.6-0.1
		c0-0.7-0.1-1.7-0.6-2.6c-1.3-2-4.1-2.3-6.7-2.7c-3.4-0.5-6.6-1.8-9.9-2.4c-4.1-0.7-10.1-2.6-18.5-7.9c-2.7-11.4-6-23.4-9.8-35.8
		c-4.4-14.4-9.1-28-13.9-40.5l-7.8-40c-0.7-0.7-2.4-2.4-4.4-4.5c0,0-25.7-26.7-35.1-29.1c-1.2-0.3-1.8,0-2.1,0.2
		c-1.7,1.2-0.6,5.6-0.3,6.7C1486.9,811.7,1488.4,815.8,1493.1,819.8z"/>
	<path class="st26" d="M1561.2,953.6c9.8,1.9,17.3,3.1,22.2,3.9c0,0,11.8,1.8,22.5,6.9c1.2,0.5,3.8,1.9,3.6,2.7
		c-0.1,0.6-1.5,0.8-5.8,1c-3.4,0.2-6.2,0.2-8.3,0.2c-0.6-0.2-1.4-0.4-2.5-0.8c-11.4-3.7-20-7.7-24.5-10
		C1566.7,956.6,1564.1,955.2,1561.2,953.6z"/>
	<path class="st49" d="M1579.5,960.8c4.5,1.5,7.9,2.1,10.4,2.4c1.2,0.1,3.1,0.3,4.4,1.7c1,1.1,1.2,2.4,1.3,3.3"/>
	<path class="st26" d="M1530.9,817.6c0,0,2.5-13.9-3.8-27c-6.3-13.1,15.9-47.3,15.9-47.3s-9.3-1.8-15.6-9.5
		c-6.3-7.7-12.6-10.5-17.1-4.4c-4.4,6.1-8.5,15.1-6.2,31.2C1506.5,776.9,1527.6,815,1530.9,817.6z"/>
	<path class="st26" d="M1536.5,747.4c1.5,1.4,4.9,4,9.9,5.2c3.9,0.9,7.1,0.5,9.1,0.2c0,2.9,0,6.4,1.5,9.9
		c2.4,5.9,8.3,13.8,21.9,21.5c0,0-7.8,15.2-3.9,28.5c0,0-18.3,2.8-21.7-8.4c0,0-2.4-4-11.5-3.2c-2.5,0.3-3.4-0.2-3.8-0.8
		c-1.1-1.5,0.7-4.8-0.2-5.4c-0.2-0.1-0.3-0.1-0.4-0.1l-3.2-2.9c-0.7,0-1.5,0-2.2-0.1c-0.2-0.2-0.4-0.5-0.5-1c-0.2-0.8-0.1-1.4,0-1.7
		c-0.6-0.5-3.3-0.9-2.5-2c0.6-0.7-2.1-3.6-4.7-3.6c-2.6,0.1-4-18.9,8.5-25.7C1533.8,754.3,1535.1,750.9,1536.5,747.4z"/>
	<path class="st47" d="M1530,755.7c0,0-13.9,9.7-6.8,27c0,0-6.3-3.2-4-18.4C1519.2,764.3,1521.1,755.8,1530,755.7z"/>
</g>
</svg>
