<?xml version="1.0" encoding="utf-8"?>
<!-- Generator: Adobe Illustrator 25.4.1, SVG Export Plug-In . SVG Version: 6.00 Build 0)  -->
<svg version="1.1" id="Layer_1" xmlns="http://www.w3.org/2000/svg" xmlns:xlink="http://www.w3.org/1999/xlink" x="0px" y="0px"
	 viewBox="0 0 400 152.1" style="enable-background:new 0 0 400 152.1;" xml:space="preserve">
<style type="text/css">
	.st0{fill:#9DC5D1;}
</style>
<g>
	<path class="st0" d="M56.8,2.3C26.2,2.3,1.3,27.1,1.3,57.8c0,30.4,24.5,55.1,54.8,55.5V57.8h56.2C112.3,27.1,87.4,2.3,56.8,2.3z"/>
	<g>
		<g>
			<g>
				<path class="st0" d="M84.1,113.2V76.8h4.5l18.4,28.8V76.8h4.5v36.4H107L88.6,84.4v28.8L84.1,113.2L84.1,113.2z"/>
				<path class="st0" d="M136.4,113.9c-1.8,0-3.5-0.3-4.9-0.8c-1.4-0.5-2.7-1.1-3.7-1.9c-1-0.7-1.9-1.5-2.5-2.2
					c-0.7-0.7-1.1-1.3-1.4-1.7l2.5-3.5c0.3,0.4,0.8,0.9,1.4,1.6c0.6,0.7,1.3,1.3,2.1,2c0.8,0.6,1.8,1.2,2.9,1.6
					c1.1,0.4,2.4,0.7,3.8,0.7c1.3,0,2.6-0.2,3.7-0.7c1.1-0.5,2-1.2,2.6-2.1c0.7-0.9,1-2.1,1-3.5c0-1.2-0.2-2.2-0.7-3
					c-0.5-0.8-1.1-1.5-2-2.1c-0.8-0.6-1.8-1.1-2.9-1.6c-1.1-0.5-2.3-1-3.6-1.5c-0.9-0.4-1.8-0.8-2.8-1.3c-0.9-0.5-1.8-1.1-2.6-1.8
					s-1.4-1.6-1.9-2.5c-0.5-1-0.7-2.2-0.7-3.5c0-1.3,0.3-2.6,0.8-3.8c0.5-1.2,1.2-2.3,2.2-3.2c0.9-0.9,2.1-1.7,3.4-2.2
					c1.3-0.5,2.7-0.8,4.3-0.8c1.4,0,2.7,0.2,4,0.7s2.4,1,3.4,1.7s1.8,1.4,2.4,2.2l-2.1,3.3c-0.5-0.6-1.1-1.2-1.9-1.8s-1.6-1-2.6-1.4
					c-1-0.4-2-0.5-3.1-0.5c-1.4,0-2.5,0.3-3.5,0.8c-0.9,0.6-1.7,1.3-2.2,2.2c-0.5,0.9-0.8,1.9-0.8,2.9c0,0.9,0.2,1.7,0.6,2.3
					c0.4,0.6,0.9,1.2,1.5,1.6s1.3,0.8,2.1,1.2c0.8,0.3,1.6,0.7,2.5,1c1.5,0.6,2.9,1.2,4.3,1.8s2.5,1.3,3.5,2.2s1.8,1.8,2.4,3
					c0.6,1.2,0.9,2.6,0.9,4.2c0,2.2-0.5,4.1-1.6,5.7c-1,1.6-2.5,2.8-4.3,3.6C140.9,113.5,138.8,113.9,136.4,113.9z"/>
				<path class="st0" d="M161.8,113.2V76.8h4.5v36.4L161.8,113.2L161.8,113.2z"/>
				<path class="st0" d="M182,113.2V76.8h4.5V93L202,76.8h5.6l-17,17.9l19,18.5h-6.2L186.5,97v16.2H182z"/>
				<path class="st0" d="M220.6,113.2V76.8h4.5v32.5h14.7v4L220.6,113.2L220.6,113.2z"/>
				<path class="st0" d="M267.8,113.9c-2.5,0-4.9-0.5-7.2-1.4c-2.2-1-4.2-2.3-5.8-4.1c-1.7-1.7-3-3.7-3.9-6
					c-0.9-2.3-1.4-4.7-1.4-7.4c0-2.6,0.5-5.1,1.4-7.4s2.3-4.3,3.9-6c1.7-1.7,3.6-3.1,5.8-4c2.2-1,4.6-1.4,7.2-1.4s4.9,0.5,7.2,1.4
					c2.2,1,4.2,2.3,5.8,4c1.7,1.7,3,3.7,3.9,6c0.9,2.3,1.4,4.7,1.4,7.4c0,2.6-0.5,5.1-1.4,7.4c-0.9,2.3-2.3,4.3-3.9,6
					c-1.7,1.7-3.6,3.1-5.8,4.1S270.3,113.9,267.8,113.9z M267.8,109.6c1.9,0,3.7-0.4,5.3-1.1c1.7-0.7,3.1-1.8,4.3-3.1
					c1.2-1.3,2.2-2.9,2.9-4.6c0.7-1.8,1-3.7,1-5.7c0-2.1-0.3-4-1-5.8c-0.7-1.8-1.7-3.3-2.9-4.6c-1.2-1.3-2.7-2.3-4.3-3.1
					c-1.7-0.7-3.4-1.1-5.3-1.1s-3.7,0.4-5.3,1.1c-1.7,0.7-3.1,1.8-4.3,3.1c-1.2,1.3-2.2,2.9-2.9,4.6c-0.7,1.8-1,3.7-1,5.8
					c0,2.1,0.3,4,1,5.7c0.7,1.8,1.7,3.3,2.9,4.6c1.2,1.3,2.7,2.3,4.3,3.1C264.1,109.2,265.9,109.6,267.8,109.6z"/>
			</g>
		</g>
	</g>
	<g>
		<g>
			<g>
				<path class="st0" d="M313.8,113.4L328.2,77h4.2l14.4,36.4h-4.8l-4-10.6h-15.3l-4.1,10.6H313.8z M324.1,98.8h12.2L330.2,83
					L324.1,98.8z"/>
				<path class="st0" d="M358.6,113.4V77H369c2.4,0,4.5,0.4,6.3,1.3s3.1,2,4.1,3.6c1,1.6,1.4,3.5,1.4,5.6c0,1.9-0.4,3.6-1.1,5.1
					c-0.8,1.5-1.8,2.7-3.2,3.6s-3,1.6-5,1.9l12.1,15.3h-5.7l-11.3-14.9h-3.4v14.9H358.6z M363.1,94.7h4.6c1.7,0,3.2-0.3,4.5-0.9
					c1.2-0.6,2.2-1.4,2.9-2.5c0.7-1.1,1-2.3,1-3.8c0-2.2-0.7-3.9-2.2-5.2s-3.5-1.9-6.2-1.9h-4.6L363.1,94.7L363.1,94.7z"/>
				<path class="st0" d="M394.6,113.4V77h4.5v36.4H394.6z"/>
			</g>
		</g>
	</g>
	<rect x="297.1" y="57.8" class="st0" width="4.5" height="92.7"/>
	<path class="st0" d="M300.9,57.8L300.9,57.8h54c0-30.6-24.8-55.5-55.5-55.5s-55.5,24.8-55.5,55.5H300.9z"/>
</g>
</svg>
